<?xml version="1.0" encoding="UTF-8" standalone="no"?>
<svg
   xmlns:dc="http://purl.org/dc/elements/1.1/"
   xmlns:cc="http://creativecommons.org/ns#"
   xmlns:rdf="http://www.w3.org/1999/02/22-rdf-syntax-ns#"
   xmlns:svg="http://www.w3.org/2000/svg"
   xmlns="http://www.w3.org/2000/svg"
   xmlns:xlink="http://www.w3.org/1999/xlink"
   xmlns:sodipodi="http://sodipodi.sourceforge.net/DTD/sodipodi-0.dtd"
   xmlns:inkscape="http://www.inkscape.org/namespaces/inkscape"
   width="1235"
   height="650"
   id="svg3032"
   version="1.1"
   inkscape:version="0.48.4 r9939"
   sodipodi:docname="49_Star_US_Flag.svg">
  <metadata
     id="metadata3077">
    <rdf:RDF>
      <cc:Work
         rdf:about="">
        <dc:format>image/svg+xml</dc:format>
        <dc:type
           rdf:resource="http://purl.org/dc/dcmitype/StillImage" />
      </cc:Work>
    </rdf:RDF>
  </metadata>
  <sodipodi:namedview
     pagecolor="#ffffff"
     bordercolor="#666666"
     borderopacity="1"
     objecttolerance="10"
     gridtolerance="10"
     guidetolerance="10"
     inkscape:pageopacity="0"
     inkscape:pageshadow="2"
     inkscape:window-width="1366"
     inkscape:window-height="746"
     id="namedview3075"
     showgrid="false"
     inkscape:zoom="0.86"
     inkscape:cx="88.384589"
     inkscape:cy="432.46964"
     inkscape:window-x="-8"
     inkscape:window-y="-8"
     inkscape:window-maximized="1"
     inkscape:current-layer="svg3032" />
  <defs
     id="defs3034"><path
   id="s"
   transform="scale(0.0308)"
   fill="#fff"
   d="M0,-1 L0.58779,0.80902 L-0.95106,-0.30902 L0.95106,-0.30902 L-0.58779,0.80902z" />
<g
   id="s17">
  <g
     id="s8">
    <use
       xlink:href="#s"
       x="0.0844"
       y="0.1345"
       id="use3039" />
    <use
       xlink:href="#s"
       x="0.1688"
       y="0.1345"
       id="use3041" />
    <use
       xlink:href="#s"
       x="0.2532"
       y="0.1345"
       id="use3043" />
    <use
       xlink:href="#s"
       x="0.3376"
       y="0.1345"
       id="use3045" />
    <use
       xlink:href="#s"
       x="0.422"
       y="0.1345"
       id="use3047" />
    <use
       xlink:href="#s"
       x="0.5064"
       y="0.1345"
       id="use3049" />
    <use
       xlink:href="#s"
       x="0.5908"
       y="0.1345"
       id="use3051" />
    <use
       xlink:href="#s"
       x="0.6752"
       y="0.1345"
       id="use3053" />
  </g>
  <g
     id="s9">
    <use
       xlink:href="#s8"
       x="0.0422"
       y="-0.0897"
       id="use3056" />
    <use
       xlink:href="#s"
       x="0.0422"
       y="0.0448"
       id="use3058" />
  </g>
</g>
<g
   id="u">
  <use
     xlink:href="#s17"
     id="use3061" />
  <use
     xlink:href="#s17"
     y="0.1794"
     id="use3063" />
  <use
     xlink:href="#s17"
     y="0.3588"
     id="use3065" />
</g>

 <style
   id="style3317"
   type="text/css">
   
    .fil2 {fill:#002868}
    .fil0 {fill:#BF0A30}
    .fil1 {fill:white}
   
  </style>

  
  
  
  
  
  
  
  
  
  
  
 </defs>
  <rect
     width="1235"
     height="650"
     fill="#B22234"
     id="rect3067" />
  <path
     stroke="#FFF"
     stroke-width="50"
     d="M0,75H1235M0,175H1235M0,275H1235M0,375H1235M0,475H1235M0,575H1235"
     id="path3069" />
  <rect
     width="494"
     height="350"
     fill="#3C3B6E"
     id="rect3071" />
  <g
     style="fill-rule:evenodd"
     id="_295829912"
     transform="matrix(0.72198236,0,0,0.72222302,-0.04110121,-0.0012822)">
   <polygon
   points="76.0571,428.096 59.7673,439.929 65.9917,459.083 49.6937,447.246 33.398,459.083 39.6224,439.93 23.3291,428.096 43.4681,428.096 49.6949,408.935 55.9217,428.096 "
   class="fil1"
   id="_299733008"
   style="fill:#ffffff" />

   <polygon
   points="121.055,364.191 104.765,376.023 110.991,395.178 94.6937,383.34 78.3969,395.178 84.6224,376.024 68.3315,364.191 88.4681,364.191 94.6937,345.033 100.919,364.191 "
   class="fil1"
   id="_299732936"
   style="fill:#ffffff" />

   <polygon
   points="76.0571,300.291 59.7661,312.125 65.9917,331.28 49.6937,319.442 33.398,331.28 39.6236,312.126 23.3291,300.291 43.4705,300.291 49.6949,281.138 55.9193,300.291 "
   class="fil1"
   id="_299732864"
   style="fill:#ffffff" />

   <polygon
   points="121.055,236.394 104.765,248.226 110.991,267.38 94.6937,255.542 78.3969,267.38 84.6224,248.226 68.3315,236.394 88.4681,236.394 94.6937,217.238 100.919,236.394 "
   class="fil1"
   id="_299732792"
   style="fill:#ffffff" />

   <polygon
   points="76.0571,172.494 59.7673,184.326 65.9917,203.48 49.6937,191.643 33.398,203.48 39.6224,184.328 23.3291,172.494 43.4681,172.494 49.6949,153.335 55.9217,172.494 "
   class="fil1"
   id="_299732720"
   style="fill:#ffffff" />

   <polygon
   points="121.055,108.593 104.766,120.425 110.991,139.578 94.6937,127.741 78.3969,139.578 84.6213,120.425 68.3315,108.593 88.4669,108.593 94.6937,89.4354 100.92,108.593 "
   class="fil1"
   id="_299732648"
   style="fill:#ffffff" />

   <polygon
   points="76.0571,44.6929 59.7673,56.5252 65.9917,75.678 49.6937,63.8409 33.398,75.678 39.6224,56.5264 23.3291,44.6929 43.4681,44.6929 49.6949,25.5354 55.9217,44.6929 "
   class="fil1"
   id="_299732576"
   style="fill:#ffffff" />

   <polygon
   points="166.135,428.096 149.845,439.929 156.07,459.083 139.772,447.246 123.476,459.083 129.7,439.93 113.407,428.096 133.546,428.096 139.773,408.935 146,428.096 "
   class="fil1"
   id="_299732504"
   style="fill:#ffffff" />

   <polygon
   points="211.133,364.191 194.843,376.023 201.069,395.178 184.772,383.34 168.475,395.178 174.7,376.024 158.409,364.191 178.546,364.191 184.772,345.033 190.997,364.191 "
   class="fil1"
   id="_299732432"
   style="fill:#ffffff" />

   <polygon
   points="166.135,300.291 149.844,312.125 156.07,331.28 139.772,319.442 123.476,331.28 129.702,312.126 113.407,300.291 133.548,300.291 139.773,281.138 145.997,300.291 "
   class="fil1"
   id="_299732360"
   style="fill:#ffffff" />

   <polygon
   points="211.133,236.394 194.843,248.226 201.069,267.38 184.772,255.542 168.475,267.38 174.7,248.226 158.409,236.394 178.546,236.394 184.772,217.238 190.997,236.394 "
   class="fil1"
   id="_299732288"
   style="fill:#ffffff" />

   <polygon
   points="166.135,172.494 149.845,184.326 156.07,203.48 139.772,191.643 123.476,203.48 129.7,184.328 113.407,172.494 133.546,172.494 139.773,153.335 146,172.494 "
   class="fil1"
   id="_293568448"
   style="fill:#ffffff" />

   <polygon
   points="166.135,44.6929 149.845,56.5252 156.07,75.678 139.772,63.8409 123.476,75.678 129.7,56.5264 113.407,44.6929 133.546,44.6929 139.773,25.5354 146,44.6929 "
   class="fil1"
   id="_293560120"
   style="fill:#ffffff" />

   <polygon
   points="256.133,428.096 239.843,439.929 246.067,459.083 229.769,447.246 213.474,459.083 219.698,439.93 203.405,428.096 223.544,428.096 229.77,408.935 235.997,428.096 "
   class="fil1"
   id="_293560144"
   style="fill:#ffffff" />

   <polygon
   points="301.13,364.191 284.841,376.023 291.066,395.178 274.769,383.34 258.472,395.178 264.698,376.024 248.407,364.191 268.544,364.191 274.769,345.033 280.995,364.191 "
   class="fil1"
   id="_293566216"
   style="fill:#ffffff" />

   <polygon
   points="256.133,300.291 239.842,312.125 246.067,331.28 229.769,319.442 213.474,331.28 219.699,312.126 203.405,300.291 223.546,300.291 229.77,281.138 235.995,300.291 "
   class="fil1"
   id="_293564464"
   style="fill:#ffffff" />

   <polygon
   points="301.13,236.394 284.841,248.226 291.066,267.38 274.769,255.542 258.472,267.38 264.698,248.226 248.407,236.394 268.544,236.394 274.769,217.238 280.995,236.394 "
   class="fil1"
   id="_293562856"
   style="fill:#ffffff" />

   <polygon
   points="256.133,172.494 239.843,184.326 246.067,203.48 229.769,191.643 213.474,203.48 219.698,184.328 203.405,172.494 223.544,172.494 229.77,153.335 235.997,172.494 "
   class="fil1"
   id="_297226352"
   style="fill:#ffffff" />

   <polygon
   points="301.13,108.593 284.842,120.425 291.066,139.578 274.769,127.741 258.472,139.578 264.697,120.425 248.407,108.593 268.543,108.593 274.769,89.4354 280.996,108.593 "
   class="fil1"
   id="_295827608"
   style="fill:#ffffff" />

   <polygon
   points="256.133,44.6929 239.843,56.5252 246.067,75.678 229.769,63.8409 213.474,75.678 219.698,56.5264 203.405,44.6929 223.544,44.6929 229.77,25.5354 235.997,44.6929 "
   class="fil1"
   id="_295827680"
   style="fill:#ffffff" />

   <polygon
   points="346.232,428.096 329.942,439.929 336.167,459.083 319.869,447.246 303.573,459.083 309.797,439.93 293.504,428.096 313.643,428.096 319.87,408.935 326.096,428.096 "
   class="fil1"
   id="_295827752"
   style="fill:#ffffff" />

   <polygon
   points="391.23,364.191 374.94,376.023 381.165,395.178 364.869,383.34 348.572,395.178 354.797,376.024 338.506,364.191 358.643,364.191 364.869,345.033 371.094,364.191 "
   class="fil1"
   id="_295827824"
   style="fill:#ffffff" />

   <polygon
   points="346.232,300.291 329.941,312.125 336.167,331.28 319.869,319.442 303.573,331.28 309.798,312.126 293.504,300.291 313.645,300.291 319.87,281.138 326.094,300.291 "
   class="fil1"
   id="_293564416"
   style="fill:#ffffff" />

   <polygon
   points="391.23,236.394 374.94,248.226 381.165,267.38 364.869,255.542 348.572,267.38 354.797,248.226 338.506,236.394 358.643,236.394 364.869,217.238 371.094,236.394 "
   class="fil1"
   id="_295829840"
   style="fill:#ffffff" />

   <polygon
   points="346.232,172.494 329.942,184.326 336.167,203.48 319.869,191.643 303.573,203.48 309.797,184.328 293.504,172.494 313.643,172.494 319.87,153.335 326.096,172.494 "
   class="fil1"
   id="_295819760"
   style="fill:#ffffff" />

   <polygon
   points="391.23,108.593 374.941,120.425 381.165,139.578 364.869,127.741 348.572,139.578 354.796,120.425 338.506,108.593 358.642,108.593 364.869,89.4354 371.095,108.593 "
   class="fil1"
   id="_295818920"
   style="fill:#ffffff" />

   <polygon
   points="346.232,44.6929 329.942,56.5252 336.167,75.678 319.869,63.8409 303.573,75.678 309.797,56.5264 293.504,44.6929 313.643,44.6929 319.87,25.5354 326.096,44.6929 "
   class="fil1"
   id="_295819592"
   style="fill:#ffffff" />

   <polygon
   points="435.816,428.096 419.526,439.929 425.751,459.083 409.453,447.246 393.157,459.083 399.381,439.93 383.088,428.096 403.227,428.096 409.454,408.935 415.681,428.096 "
   class="fil1"
   id="_295819472"
   style="fill:#ffffff" />

   <polygon
   points="480.814,364.191 464.524,376.023 470.75,395.178 454.453,383.34 438.156,395.178 444.381,376.024 428.091,364.191 448.227,364.191 454.453,345.033 460.678,364.191 "
   class="fil1"
   id="_295818608"
   style="fill:#ffffff" />

   <polygon
   points="435.816,300.291 419.525,312.125 425.751,331.28 409.453,319.442 393.157,331.28 399.383,312.126 383.088,300.291 403.23,300.291 409.454,281.138 415.678,300.291 "
   class="fil1"
   id="_295819040"
   style="fill:#ffffff" />

   <polygon
   points="480.814,236.394 464.524,248.226 470.75,267.38 454.453,255.542 438.156,267.38 444.381,248.226 428.091,236.394 448.227,236.394 454.453,217.238 460.678,236.394 "
   class="fil1"
   id="_295819664"
   style="fill:#ffffff" />

   <polygon
   points="435.816,172.494 419.526,184.326 425.751,203.48 409.453,191.643 393.157,203.48 399.381,184.328 383.088,172.494 403.227,172.494 409.454,153.335 415.681,172.494 "
   class="fil1"
   id="_295819616"
   style="fill:#ffffff" />

   <polygon
   points="480.814,108.593 464.525,120.425 470.75,139.578 454.453,127.741 438.156,139.578 444.38,120.425 428.091,108.593 448.226,108.593 454.453,89.4354 460.68,108.593 "
   class="fil1"
   id="_295819784"
   style="fill:#ffffff" />

   <polygon
   points="435.816,44.6929 419.526,56.5252 425.751,75.678 409.453,63.8409 393.157,75.678 399.381,56.5264 383.088,44.6929 403.227,44.6929 409.454,25.5354 415.681,44.6929 "
   class="fil1"
   id="_295819808"
   style="fill:#ffffff" />

   <polygon
   points="526.3,428.096 510.011,439.929 516.235,459.083 499.937,447.246 483.641,459.083 489.866,439.93 473.572,428.096 493.711,428.096 499.938,408.935 506.165,428.096 "
   class="fil1"
   id="_295819832"
   style="fill:#ffffff" />

   <polygon
   points="571.298,364.191 555.008,376.023 561.234,395.178 544.937,383.34 528.64,395.178 534.866,376.024 518.575,364.191 538.711,364.191 544.937,345.033 551.163,364.191 "
   class="fil1"
   id="_295819856"
   style="fill:#ffffff" />

   <polygon
   points="526.3,300.291 510.009,312.125 516.235,331.28 499.937,319.442 483.641,331.28 489.867,312.126 473.572,300.291 493.714,300.291 499.938,281.138 506.163,300.291 "
   class="fil1"
   id="_295819880"
   style="fill:#ffffff" />

   <polygon
   points="571.298,236.394 555.008,248.226 561.234,267.38 544.937,255.542 528.64,267.38 534.866,248.226 518.575,236.394 538.711,236.394 544.937,217.238 551.163,236.394 "
   class="fil1"
   id="_295819904"
   style="fill:#ffffff" />

   <polygon
   points="526.3,172.494 510.011,184.326 516.235,203.48 499.937,191.643 483.641,203.48 489.866,184.328 473.572,172.494 493.711,172.494 499.938,153.335 506.165,172.494 "
   class="fil1"
   id="_295818776"
   style="fill:#ffffff" />

   <polygon
   points="571.298,108.593 555.009,120.425 561.234,139.578 544.937,127.741 528.64,139.578 534.865,120.425 518.575,108.593 538.71,108.593 544.937,89.4354 551.164,108.593 "
   class="fil1"
   id="_295819928"
   style="fill:#ffffff" />

   <polygon
   points="526.3,44.6929 510.011,56.5252 516.235,75.678 499.937,63.8409 483.641,75.678 489.866,56.5264 473.572,44.6929 493.711,44.6929 499.938,25.5354 506.165,44.6929 "
   class="fil1"
   id="_293567968"
   style="fill:#ffffff" />

   <polygon
   points="616.015,428.096 599.725,439.929 605.949,459.083 589.651,447.246 573.356,459.083 579.58,439.93 563.287,428.096 583.426,428.096 589.652,408.935 595.879,428.096 "
   class="fil1"
   id="_295830344"
   style="fill:#ffffff" />

   <polygon
   points="661.012,364.191 644.722,376.023 650.948,395.178 634.651,383.34 618.354,395.178 624.58,376.024 608.289,364.191 628.426,364.191 634.651,345.033 640.877,364.191 "
   class="fil1"
   id="_293568256"
   style="fill:#ffffff" />

   <polygon
   points="616.015,300.291 599.724,312.125 605.949,331.28 589.651,319.442 573.356,331.28 579.581,312.126 563.287,300.291 583.428,300.291 589.652,281.138 595.877,300.291 "
   class="fil1"
   id="_293567824"
   style="fill:#ffffff" />

   <polygon
   points="661.012,236.394 644.722,248.226 650.948,267.38 634.651,255.542 618.354,267.38 624.58,248.226 608.289,236.394 628.426,236.394 634.651,217.238 640.877,236.394 "
   class="fil1"
   id="_293560696"
   style="fill:#ffffff" />

   <polygon
   points="616.015,172.494 599.725,184.326 605.949,203.48 589.651,191.643 573.356,203.48 579.58,184.328 563.287,172.494 583.426,172.494 589.652,153.335 595.879,172.494 "
   class="fil1"
   id="_295830200"
   style="fill:#ffffff" />

   <polygon
   points="661.012,108.593 644.724,120.425 650.948,139.578 634.651,127.741 618.354,139.578 624.579,120.425 608.289,108.593 628.424,108.593 634.651,89.4354 640.878,108.593 "
   class="fil1"
   id="_295830128"
   style="fill:#ffffff" />

   <polygon
   points="616.015,44.6929 599.725,56.5252 605.949,75.678 589.651,63.8409 573.356,75.678 579.58,56.5264 563.287,44.6929 583.426,44.6929 589.652,25.5354 595.879,44.6929 "
   class="fil1"
   id="_295830056"
   style="fill:#ffffff" />

   <polygon
   points="211.133,108.593 194.844,120.425 201.069,139.578 184.772,127.741 168.475,139.578 174.699,120.425 158.409,108.593 178.545,108.593 184.772,89.4354 190.998,108.593 "
   class="fil1"
   id="_295829984"
   style="fill:#ffffff" />

  </g>
</svg>
